HIERARCHY
ROOT Hips
{
	OFFSET 0.00000 0.00000 0.00000
	CHANNELS 6 Xposition Yposition Zposition Zrotation Yrotation Xrotation 
	JOINT LHipJoint
	{
		OFFSET 0 0 0
		CHANNELS 3 Zrotation Yrotation Xrotation
		JOINT LeftUpLeg
		{
			OFFSET 1.34019 -1.87553 0.90315
			CHANNELS 3 Zrotation Yrotation Xrotation
			JOINT LeftLeg
			{
				OFFSET 2.55316 -7.01474 0.00000
				CHANNELS 3 Zrotation Yrotation Xrotation
				JOINT LeftFoot
				{
					OFFSET 2.64657 -7.27139 0.00000
					CHANNELS 3 Zrotation Yrotation Xrotation
					JOINT LeftToeBase
					{
						OFFSET 0.24207 -0.66507 2.14489
						CHANNELS 3 Zrotation Yrotation Xrotation
						End Site
						{
							OFFSET 0.00000 -0.00000 1.12451
						}
					}
				}
			}
		}
	}
	JOINT RHipJoint
	{
		OFFSET 0 0 0
		CHANNELS 3 Zrotation Yrotation Xrotation
		JOINT RightUpLeg
		{
			OFFSET -1.28320 -1.87553 0.90315
			CHANNELS 3 Zrotation Yrotation Xrotation
			JOINT RightLeg
			{
				OFFSET -2.60484 -7.15674 0.00000
				CHANNELS 3 Zrotation Yrotation Xrotation
				JOINT RightFoot
				{
					OFFSET -2.60296 -7.15159 0.00000
					CHANNELS 3 Zrotation Yrotation Xrotation
					JOINT RightToeBase
					{
						OFFSET -0.31082 -0.85398 2.28998
						CHANNELS 3 Zrotation Yrotation Xrotation
						End Site
						{
							OFFSET -0.00000 -0.00000 1.21611
						}
					}
				}
			}
		}
	}
	JOINT LowerBack
	{
		OFFSET 0 0 0
		CHANNELS 3 Zrotation Yrotation Xrotation
		JOINT Spine
		{
			OFFSET -0.00160 2.05581 -0.15156
			CHANNELS 3 Zrotation Yrotation Xrotation
			JOINT Spine1
			{
				OFFSET 0.04594 2.06326 -0.01617
				CHANNELS 3 Zrotation Yrotation Xrotation
				JOINT Neck
				{
					OFFSET 0 0 0
					CHANNELS 3 Zrotation Yrotation Xrotation
					JOINT Neck1
					{
						OFFSET 0.03753 1.73883 0.26751
						CHANNELS 3 Zrotation Yrotation Xrotation
						JOINT Head
						{
							OFFSET -0.09795 1.76129 -0.31794
							CHANNELS 3 Zrotation Yrotation Xrotation
							End Site
							{
								OFFSET -0.03611 1.79987 -0.13846
							}
						}
					}
				}
				JOINT LeftShoulder
				{
					OFFSET 0 0 0
					CHANNELS 3 Zrotation Yrotation Xrotation
					JOINT LeftArm
					{
						OFFSET 3.30667 1.29205 -0.22445
						CHANNELS 3 Zrotation Yrotation Xrotation
						JOINT LeftForeArm
						{
							OFFSET 4.92785 -0.00000 -0.00000
							CHANNELS 3 Zrotation Yrotation Xrotation
							JOINT LeftHand
							{
								OFFSET 3.44052 -0.00000 0.00000
								CHANNELS 3 Zrotation Yrotation Xrotation
								JOINT LeftFingerBase
								{
									OFFSET 0 0 0
									CHANNELS 3 Zrotation Yrotation Xrotation
									JOINT LeftHandIndex1
									{
										OFFSET 0.65433 -0.00000 0.00000
										CHANNELS 3 Zrotation Yrotation Xrotation
										End Site
										{
											OFFSET 0.52753 -0.00000 0.00000
										}
									}
								}
								JOINT LThumb
								{
									OFFSET 0 0 0
									CHANNELS 3 Zrotation Yrotation Xrotation
									End Site
									{
										OFFSET 0.53559 -0.00000 0.53559
									}
								}
							}
						}
					}
				}
				JOINT RightShoulder
				{
					OFFSET 0 0 0
					CHANNELS 3 Zrotation Yrotation Xrotation
					JOINT RightArm
					{
						OFFSET -3.20032 1.49783 -0.27688
						CHANNELS 3 Zrotation Yrotation Xrotation
						JOINT RightForeArm
						{
							OFFSET -5.09181 -0.00000 -0.00000
							CHANNELS 3 Zrotation Yrotation Xrotation
							JOINT RightHand
							{
								OFFSET -3.49865 -0.00000 -0.00000
								CHANNELS 3 Zrotation Yrotation Xrotation
								JOINT RightFingerBase
								{
									OFFSET 0 0 0
									CHANNELS 3 Zrotation Yrotation Xrotation
									JOINT RightHandIndex1
									{
										OFFSET -0.66641 -0.00000 0.00000
										CHANNELS 3 Zrotation Yrotation Xrotation
										End Site
										{
											OFFSET -0.53728 -0.00000 0.00000
										}
									}
								}
								JOINT RThumb
								{
									OFFSET 0 0 0
									CHANNELS 3 Zrotation Yrotation Xrotation
									End Site
									{
										OFFSET -0.54548 -0.00000 0.54548
									}
								}
							}
						}
					}
				}
			}
		}
	}
}
MOTION
Frames: 14
Frame Time: .0083333
0.4449 17.1948 -7.2729 -9.1699 1.9761 0.3138 0.0000 0.0000 0.0000 -7.3677 -8.9880 -35.5224 2.2076 9.2858 26.6935 -0.9523 17.4346 -10.8635 0.8379 -5.8391 -16.3182 0.0000 0.0000 0.0000 28.9274 -6.2533 17.0256 -0.8511 -5.8838 16.4477 -0.3687 -9.2167 -18.2978 -1.2881 7.1917 -20.2845 4.8210 0.8699 7.1562 4.9951 1.8593 -1.1841 2.2917 0.8549 -5.2811 6.9572 1.7696 -25.2300 -5.2404 1.1292 17.6772 -2.8184 0.3676 9.8156 0.0000 0.0000 0.0000 -90.1068 11.4051 13.8384 23.5227 -34.6555 -7.4334 -0.0000 0.0000 -14.1111 22.4478 -2.8436 -1.1742 -7.1250 0.0000 -0.0000 -3.1742 26.9003 1.3966 0.0000 0.0000 0.0000 83.2839 8.1077 4.9932 -10.2966 17.2021 -1.5615 0.0000 0.0000 1.4212 -19.0683 -6.9860 2.4074 7.1250 -0.0000 -0.0000 6.5570 -37.2955 1.2497
0.4867 17.2149 -7.0308 -8.5227 1.4242 0.2749 0.0000 0.0000 0.0000 -8.0999 -9.0046 -34.8827 2.2876 9.4410 27.1849 -1.0660 18.0856 -9.5204 0.8227 -5.7873 -16.1684 0.0000 0.0000 0.0000 27.9620 -6.0387 17.3060 -0.9836 -6.3128 17.6947 -0.2985 -9.1359 -17.3770 -1.4296 7.5604 -21.3866 4.1790 0.9400 6.8475 4.6769 1.8571 -1.2285 2.3203 0.8691 -5.1583 7.0406 1.8439 -25.3580 -4.9796 1.1406 18.1392 -2.7451 0.4143 10.0031 -0.0000 0.0000 0.0000 -90.1453 12.0389 13.8489 23.2336 -34.3433 -7.2697 -0.0000 0.0000 -15.2138 22.7723 -2.5092 -1.0529 -7.1250 0.0000 -0.0000 -2.9306 27.2557 1.2646 -0.0000 0.0000 0.0000 83.8870 7.7867 4.3048 -10.2049 17.0595 -1.5345 0.0000 0.0000 1.8016 -19.3537 -7.3744 2.5814 7.1250 -0.0000 -0.0000 6.3655 -37.7213 1.1461
0.5301 17.2410 -6.7911 -8.0010 0.9074 0.3898 0.0000 0.0000 0.0000 -8.6703 -8.9080 -34.5233 2.3794 9.6152 27.7394 -1.1374 18.5072 -8.1641 0.7893 -5.6713 -15.8338 0.0000 0.0000 0.0000 27.1503 -5.7053 17.2431 -1.1534 -6.8188 19.1798 -0.2211 -9.0391 -16.2805 -1.5696 7.9053 -22.4269 3.7112 0.9929 6.4492 4.3783 1.8506 -1.3383 2.2753 0.8757 -5.0492 7.1134 1.9114 -25.4478 -4.7836 1.1595 18.4660 -2.6892 0.4556 10.1372 0.0000 0.0000 0.0000 -90.1164 12.6226 13.9519 22.9166 -33.9975 -7.0916 -0.0000 0.0000 -16.0879 23.0327 -2.2879 -0.9724 -7.1250 0.0000 -0.0000 -2.7337 27.4908 1.1644 0.0000 0.0000 0.0000 84.4702 7.3794 3.9997 -10.1802 17.0210 -1.5273 0.0000 0.0000 1.9072 -19.5493 -7.6323 2.7001 7.1250 -0.0000 -0.0000 6.2328 -38.0054 1.0784
0.5734 17.2712 -6.5559 -7.5787 0.4581 0.6033 0.0000 0.0000 0.0000 -9.1822 -8.5525 -34.4075 2.4788 9.7992 28.3288 -1.1431 18.5199 -6.9049 0.7491 -5.5285 -15.4223 0.0000 0.0000 0.0000 26.4638 -5.3188 16.8451 -1.3713 -7.4111 20.9391 -0.1382 -8.9459 -15.0105 -1.6988 8.2083 -23.3486 3.3556 1.0231 6.0249 4.1125 1.8304 -1.5003 2.2046 0.8723 -4.9779 7.1711 1.9646 -25.4592 -4.6627 1.1848 18.6588 -2.6540 0.4890 10.2105 -0.0000 -0.0000 0.0000 -90.0584 13.1176 14.0937 22.5284 -33.5690 -6.8757 -0.0000 0.0000 -16.6131 23.2279 -2.1969 -0.9425 -7.1250 0.0000 -0.0000 -2.5848 27.5866 1.0950 -0.0000 -0.0000 0.0000 85.0021 6.8926 4.0743 -10.2136 17.0730 -1.5371 0.0000 0.0000 1.7513 -19.6344 -7.7186 2.7433 7.1250 -0.0000 -0.0000 6.1717 -38.1021 1.0530
0.6146 17.3032 -6.3270 -7.2278 0.0790 0.8361 0.0000 0.0000 0.0000 -9.6875 -7.9234 -34.4257 2.5821 9.9856 28.9302 -1.0900 18.1259 -5.8767 0.6904 -5.3118 -14.8001 0.0000 0.0000 0.0000 25.8727 -4.9336 16.1853 -1.6431 -8.0794 22.9555 -0.0481 -8.9045 -13.5376 -1.8090 8.4563 -24.1088 3.0521 1.0363 5.6574 3.8810 1.8013 -1.6875 2.1411 0.8631 -4.9647 7.2824 2.0391 -25.4003 -4.6553 1.2499 18.7082 -2.6598 0.5293 10.2233 0.0000 0.0000 0.0000 -89.9824 13.5031 14.2570 22.0458 -33.0288 -6.6108 -0.0000 0.0000 -16.7171 23.3681 -2.2527 -0.9730 -7.1250 0.0000 -0.0000 -2.4762 27.5236 1.0526 0.0000 0.0000 0.0000 85.4745 6.3223 4.5254 -10.3092 17.2217 -1.5652 0.0000 0.0000 1.3108 -19.6068 -7.6200 2.7044 7.1250 -0.0000 -0.0000 6.1823 -37.9963 1.0710
0.6544 17.3358 -6.1041 -6.8878 -0.2425 1.0111 0.0000 0.0000 0.0000 -10.2575 -7.0801 -34.4429 2.6869 10.1701 29.5294 -0.9964 17.3922 -5.1309 0.6189 -5.0348 -14.0079 0.0000 0.0000 0.0000 25.2769 -4.6165 15.3636 -1.9671 -8.7972 25.1630 0.0428 -8.8987 -11.8561 -1.8731 8.5967 -24.5416 2.7377 1.0385 5.4021 3.6753 1.7657 -1.8674 2.1099 0.8513 -5.0086 7.3672 2.1064 -25.3305 -4.6750 1.3215 18.6984 -2.6689 0.5666 10.2133 -0.0000 -0.0000 0.0000 -89.9087 13.7598 14.4154 21.4549 -32.3554 -6.2916 -0.0000 0.0000 -16.3713 23.4841 -2.4244 -1.0529 -7.1250 0.0000 -0.0000 -2.3853 27.3345 1.0245 -0.0000 -0.0000 0.0000 85.8675 5.6750 5.3413 -10.4684 17.4689 -1.6127 0.0000 0.0000 0.5871 -19.4614 -7.3283 2.5807 7.1250 -0.0000 -0.0000 6.2682 -37.6799 1.1348
0.6934 17.3687 -5.8867 -6.5614 -0.5359 1.0805 0.0000 0.0000 0.0000 -10.8569 -6.1328 -34.3551 2.7921 10.3506 30.1197 -0.8913 16.4962 -4.6921 0.5399 -4.7077 -13.0766 0.0000 0.0000 0.0000 24.6681 -4.3753 14.4690 -2.3350 -9.5315 27.4724 0.1316 -8.9517 -9.9163 -1.8748 8.6002 -24.5526 2.4204 1.0410 5.2924 3.4930 1.7389 -2.0289 2.1018 0.8443 -5.1173 7.4451 2.1684 -25.2082 -4.7084 1.3956 18.6641 -2.6810 0.6030 10.1855 -0.0000 0.0000 0.0000 -89.8448 13.9111 14.5395 20.7634 -31.5512 -5.9257 -0.0000 0.0000 -15.5612 23.5799 -2.6628 -1.1617 -7.1250 0.0000 -0.0000 -2.3099 27.0730 1.0063 -0.0000 0.0000 0.0000 86.1852 4.9377 6.4480 -10.6890 17.8100 -1.6796 0.0000 -0.0000 -0.3571 -19.1977 -6.8325 2.3720 7.1250 -0.0000 -0.0000 6.4284 -37.1424 1.2491
0.7326 17.4019 -5.6739 -6.2552 -0.8245 1.0341 0.0000 0.0000 0.0000 -11.4459 -5.1900 -34.1056 2.8962 10.5251 30.6943 -0.7975 15.6279 -4.5199 0.4605 -4.3528 -12.0714 0.0000 0.0000 0.0000 24.0472 -4.1930 13.5639 -2.7339 -10.2512 29.7941 0.2108 -9.0773 -7.6788 -1.7957 8.4269 -24.0184 2.1214 1.0473 5.3085 3.3335 1.7235 -2.1488 2.1043 0.8431 -5.2545 7.5054 2.2242 -25.0748 -4.7310 1.4664 18.6493 -2.6871 0.6384 10.1624 -0.0000 -0.0000 0.0000 -89.7998 13.9382 14.5969 19.9866 -30.6262 -5.5245 -0.0000 0.0000 -14.3430 23.6472 -2.9054 -1.2714 -7.1250 0.0000 -0.0000 -2.2569 26.8070 0.9973 -0.0000 -0.0000 0.0000 86.4266 4.1495 7.7818 -10.9643 18.2335 -1.7647 0.0000 -0.0000 -1.4468 -18.7982 -6.1427 2.0860 7.1250 -0.0000 -0.0000 6.6788 -36.3959 1.4209
0.7728 17.4353 -5.4651 -5.9829 -1.1288 0.8855 0.0000 0.0000 0.0000 -11.9794 -4.3450 -33.6677 2.9956 10.6880 31.2346 -0.7263 14.9175 -4.5990 0.3820 -3.9691 -10.9896 0.0000 0.0000 0.0000 23.4364 -4.0305 12.6824 -3.1509 -10.9354 32.0622 0.2686 -9.2836 -5.1327 -1.6651 8.1306 -23.1114 1.8681 1.0607 5.4166 3.1970 1.7232 -2.2248 2.1024 0.8485 -5.3983 7.4999 2.2567 -24.9361 -4.7003 1.5178 18.6805 -2.6671 0.6673 10.1527 0.0000 0.0000 0.0000 -89.7811 13.8557 14.5397 19.1473 -29.6013 -5.1034 -0.0000 0.0000 -12.8180 23.6596 -3.1372 -1.3735 -7.1250 0.0000 -0.0000 -2.2466 26.5540 1.0060 0.0000 0.0000 0.0000 86.5961 3.3162 9.2839 -11.2940 18.7375 -1.8693 0.0000 -0.0000 -2.5926 -18.2891 -5.3253 1.7570 7.1250 -0.0000 -0.0000 7.0050 -35.5147 1.6426
0.8145 17.4694 -5.2602 -5.7693 -1.4531 0.6600 0.0000 0.0000 0.0000 -12.4226 -3.6349 -33.0424 3.0840 10.8299 31.7083 -0.6787 14.4172 -4.8334 0.3105 -3.5821 -9.9037 0.0000 0.0000 0.0000 22.8781 -3.8519 11.8297 -3.5767 -11.5747 34.2435 0.2901 -9.5661 -2.2952 -1.4680 7.6567 -21.6761 1.6976 1.0802 5.5946 3.0844 1.7386 -2.2612 2.0762 0.8594 -5.5395 7.4738 2.2834 -24.8212 -4.6617 1.5660 18.7667 -2.6423 0.6945 10.1664 -0.0000 -0.0000 0.0000 -89.7830 13.6923 14.3744 18.2914 -28.5287 -4.6876 -0.0000 0.0000 -11.1002 23.5922 -3.3463 -1.4603 -7.1250 0.0000 -0.0000 -2.2974 26.3278 1.0410 -0.0000 -0.0000 0.0000 86.7009 2.4521 10.9015 -11.6813 19.3250 -1.9956 0.0000 -0.0000 -3.7141 -17.6505 -4.4086 1.4011 7.1250 -0.0000 -0.0000 7.4253 -34.5307 1.9216
0.8574 17.5044 -5.0592 -5.5953 -1.7855 0.3868 0.0000 0.0000 0.0000 -12.8044 -3.0756 -32.2455 3.1537 10.9399 32.0773 -0.6551 14.1626 -5.1519 0.2441 -3.1793 -8.7783 0.0000 0.0000 0.0000 22.3678 -3.6440 10.9953 -4.0079 -12.1709 36.3391 0.2613 -9.9141 0.7597 -1.2431 7.0695 -19.9213 1.5926 1.0993 5.8071 2.9879 1.7583 -2.2579 2.0290 0.8705 -5.6576 7.4266 2.3121 -24.7455 -4.6186 1.6213 18.8938 -2.6120 0.7241 10.2020 -0.0000 -0.0000 0.0000 -89.8102 13.4544 14.0684 17.4501 -27.4473 -4.2928 -0.0000 0.0000 -9.2864 23.4226 -3.5469 -1.5352 -7.1250 0.0000 -0.0000 -2.4257 26.1141 1.1113 -0.0000 -0.0000 0.0000 86.7467 1.5968 12.5409 -12.1031 19.9591 -2.1373 0.0000 -0.0000 -4.6798 -16.8771 -3.3851 1.0263 7.1250 -0.0000 -0.0000 7.9410 -33.4397 2.2691
0.9022 17.5414 -4.8610 -5.4231 -2.1444 0.0906 0.0000 0.0000 0.0000 -13.1764 -2.6517 -31.2875 3.1970 11.0074 32.3047 -0.6544 14.1574 -5.5337 0.1863 -2.7798 -7.6662 0.0000 0.0000 0.0000 21.8637 -3.3853 10.1682 -4.4475 -12.7332 38.3777 0.1711 -10.2409 3.9080 -1.0014 6.3680 -17.8560 1.5173 1.1207 6.0251 2.8972 1.7821 -2.2240 1.9705 0.8826 -5.7460 7.4348 2.3671 -24.6724 -4.6419 1.7088 19.0132 -2.6096 0.7642 10.2386 -0.0000 0.0000 0.0000 -89.8703 13.1818 13.6188 16.6630 -26.4114 -3.9363 -0.0000 0.0000 -7.4819 23.1428 -3.7232 -1.5899 -7.1250 0.0000 -0.0000 -2.6374 25.9306 1.2198 -0.0000 0.0000 0.0000 86.7377 0.7588 14.1849 -12.5632 20.6439 -2.2970 0.0000 -0.0000 -5.4693 -16.0196 -2.3484 0.6740 7.1250 -0.0000 -0.0000 8.5189 -32.3440 2.6651
0.9481 17.5804 -4.6655 -5.2363 -2.5073 -0.2029 0.0000 0.0000 0.0000 -13.5625 -2.3699 -30.1995 3.2097 11.0269 32.3708 -0.6758 14.3882 -5.9305 0.1347 -2.3651 -6.5159 0.0000 0.0000 0.0000 21.3597 -3.0919 9.3144 -4.9029 -13.2736 40.4015 0.0241 -10.5045 6.9754 -0.7712 5.6076 -15.6501 1.4490 1.1368 6.2217 2.8070 1.7973 -2.1655 1.9099 0.8904 -5.7959 7.4870 2.4551 -24.6304 -4.7087 1.8347 19.1438 -2.6244 0.8195 10.2884 0.0000 0.0000 0.0000 -89.9585 12.8586 13.0293 15.9310 -25.4270 -3.6163 -0.0000 0.0000 -5.7850 22.7498 -3.8849 -1.6274 -7.1250 0.0000 -0.0000 -2.9342 25.7671 1.3686 0.0000 0.0000 0.0000 86.6855 -0.0183 15.7644 -13.0344 21.3376 -2.4658 0.0000 -0.0000 -6.0382 -15.1017 -1.3262 0.3578 7.1250 -0.0000 -0.0000 9.1408 -31.2738 3.1022
0.9950 17.6215 -4.4718 -4.9576 -2.8718 -0.4681 0.0000 0.0000 0.0000 -14.0581 -2.2104 -29.0161 3.1910 10.9980 32.2730 -0.7168 14.8146 -6.3244 0.0930 -1.9666 -5.4135 0.0000 0.0000 0.0000 20.7637 -2.7744 8.4031 -5.3834 -13.8030 42.4538 -0.1537 -10.7217 9.7093 -0.5645 4.8122 -13.3736 1.2967 1.1493 6.3644 2.6994 1.7969 -2.0930 1.8809 0.8933 -5.8020 7.5583 2.5599 -24.6330 -4.7898 1.9777 19.3013 -2.6451 0.8822 10.3578 -0.0000 -0.0000 0.0000 -90.0703 12.5152 12.3452 15.2750 -24.5278 -3.3393 -0.0000 0.0000 -4.2928 22.2544 -3.9968 -1.6337 -7.1250 0.0000 -0.0000 -3.3079 25.6610 1.5516 -0.0000 -0.0000 0.0000 86.5902 -0.7256 17.2907 -13.5157 22.0382 -2.6437 0.0000 -0.0000 -6.4200 -14.1758 -0.4113 0.1039 7.1250 -0.0000 -0.0000 9.7739 -30.3248 3.5479
